<svg width="16" height="16" viewBox="0 0 16 16" fill="none" xmlns="http://www.w3.org/2000/svg">
<path d="M9.3335 10.3333C9.3335 9.78106 9.78121 9.33334 10.3335 9.33334H12.3335C12.8858 9.33334 13.3335 9.78106 13.3335 10.3333V12.3333C13.3335 12.8856 12.8858 13.3333 12.3335 13.3333H10.3335C9.78121 13.3333 9.3335 12.8856 9.3335 12.3333V10.3333Z" stroke="current" stroke-width="1.5" stroke-linecap="round" stroke-linejoin="round"/>
<path d="M2.6665 3.66666C2.6665 3.11437 3.11422 2.66666 3.6665 2.66666H5.6665C6.21879 2.66666 6.6665 3.11437 6.6665 3.66666V5.66666C6.6665 6.21894 6.21879 6.66666 5.6665 6.66666H3.6665C3.11422 6.66666 2.6665 6.21894 2.6665 5.66666V3.66666Z" stroke="current" stroke-width="1.5" stroke-linecap="round" stroke-linejoin="round"/>
<path d="M9.3335 3.66666C9.3335 3.11437 9.78121 2.66666 10.3335 2.66666H12.3335C12.8858 2.66666 13.3335 3.11437 13.3335 3.66666V5.66666C13.3335 6.21894 12.8858 6.66666 12.3335 6.66666H10.3335C9.78121 6.66666 9.3335 6.21894 9.3335 5.66666V3.66666Z" stroke="current" stroke-width="1.5" stroke-linecap="round" stroke-linejoin="round"/>
<path d="M2.6665 10.3333C2.6665 9.78106 3.11422 9.33334 3.6665 9.33334H5.6665C6.21879 9.33334 6.6665 9.78106 6.6665 10.3333V12.3333C6.6665 12.8856 6.21879 13.3333 5.6665 13.3333H3.6665C3.11422 13.3333 2.6665 12.8856 2.6665 12.3333V10.3333Z" stroke="current" stroke-width="1.5" stroke-linecap="round" stroke-linejoin="round"/>
</svg>
