<svg width="16" height="16" viewBox="0 0 16 16" fill="none" xmlns="http://www.w3.org/2000/svg">
<path d="M5.71445 4.66667V3.2C5.71445 2.88174 5.83486 2.57652 6.04918 2.35147C6.26351 2.12643 6.5542 2 6.85731 2H9.14302C9.44612 2 9.73681 2.12643 9.95114 2.35147C10.1655 2.57652 10.2859 2.88174 10.2859 3.2V4.66667M12.6668 4.66667L12.0002 12.8C12.0002 13.1183 11.8798 13.4235 11.6654 13.6485C11.4511 13.8736 11.1604 14 10.8573 14H5.14302C4.83992 14 4.54923 13.8736 4.3349 13.6485C4.12057 13.4235 4.00016 13.1183 4.00016 12.8L3.3335 4.66667H12.6668Z" stroke="#666666" stroke-linecap="round" stroke-linejoin="round"/>
<path d="M2.6665 4.66666H3.85169H13.3332" stroke="#666666" stroke-linecap="round" stroke-linejoin="round"/>
</svg>
