<svg width="16" height="16" viewBox="0 0 16 16" fill="none" xmlns="http://www.w3.org/2000/svg">
<path d="M10.7357 3.11231C10.877 2.97102 11.0447 2.85894 11.2294 2.78248C11.414 2.70601 11.6118 2.66666 11.8116 2.66666C12.0114 2.66666 12.2093 2.70601 12.3939 2.78248C12.5785 2.85894 12.7462 2.97102 12.8875 3.11231C13.0288 3.2536 13.1409 3.42133 13.2173 3.60593C13.2938 3.79054 13.3332 3.98839 13.3332 4.1882C13.3332 4.38802 13.2938 4.58587 13.2173 4.77047C13.1409 4.95508 13.0288 5.12281 12.8875 5.2641L5.62522 12.5264L2.6665 13.3333L3.47343 10.3746L10.7357 3.11231Z" stroke="#666666" stroke-linecap="round" stroke-linejoin="round"/>
</svg>
