<svg width="58" height="20" viewBox="0 0 58 20" fill="none" xmlns="http://www.w3.org/2000/svg">
<path d="M6.0332 6.29046H9.5761V9.37124H6.13589V19.7946H2.13088V9.37124H0V6.29046H2.13088V5.6743C2.13088 4.09968 2.59299 2.85025 3.51723 1.92602C4.45858 1.00178 5.77647 0.539662 7.4709 0.539662C8.06994 0.539662 8.63475 0.608124 9.16533 0.745048C9.71302 0.864857 10.1666 1.04457 10.526 1.28419L9.47341 4.18526C9.01129 3.86006 8.47215 3.69747 7.856 3.69747C6.6408 3.69747 6.0332 4.36497 6.0332 5.69997V6.29046Z" fill="#999999"/>
<path d="M12.1714 6.26415H16.0959V19.7987H12.1714V6.26415ZM14.1336 4.37736C13.4125 4.37736 12.8255 4.16772 12.3726 3.74843C11.9198 3.32914 11.6934 2.80922 11.6934 2.18868C11.6934 1.56813 11.9198 1.04822 12.3726 0.628931C12.8255 0.209644 13.4125 0 14.1336 0C14.8548 0 15.4418 0.201258 15.8946 0.603774C16.3475 1.00629 16.5739 1.50943 16.5739 2.11321C16.5739 2.7673 16.3475 3.31237 15.8946 3.74843C15.4418 4.16772 14.8548 4.37736 14.1336 4.37736Z" fill="#999999"/>
<path d="M27.7879 19.7987L24.8194 15.8429L21.7502 19.7987H17.4734L22.681 12.9811L17.6495 6.26415H22.0521L24.8194 9.92894L27.8634 6.26415H32.0395L27.008 12.8805L32.2407 19.7987H27.7879Z" fill="#999999"/>
<path d="M46.3064 13.0818C46.3064 13.1321 46.2812 13.4843 46.2309 14.1384H35.9919C36.1764 14.9769 36.6125 15.6394 37.3001 16.1258C37.9877 16.6122 38.8431 16.8553 39.8661 16.8553C40.5705 16.8553 41.1911 16.7547 41.7278 16.5535C42.2812 16.3354 42.7928 16 43.2624 15.5472L45.3504 17.8113C44.0758 19.2704 42.2141 20 39.7655 20C38.2393 20 36.8892 19.7065 35.7152 19.1195C34.5412 18.5157 33.6355 17.6855 32.9982 16.6289C32.3609 15.5723 32.0422 14.3732 32.0422 13.0314C32.0422 11.7065 32.3525 10.5157 32.973 9.45912C33.6104 8.38575 34.4741 7.55556 35.5642 6.96855C36.6712 6.36478 37.9039 6.06289 39.2624 6.06289C40.5873 6.06289 41.7865 6.34801 42.8598 6.91824C43.9332 7.48847 44.7718 8.31027 45.3756 9.38365C45.9961 10.4403 46.3064 11.673 46.3064 13.0818ZM39.2875 9.03145C38.3986 9.03145 37.6523 9.28302 37.0485 9.78616C36.4447 10.2893 36.0758 10.9769 35.9416 11.8491H42.6083C42.4741 10.9937 42.1051 10.3145 41.5014 9.81132C40.8976 9.2914 40.1596 9.03145 39.2875 9.03145Z" fill="#999999"/>
<path d="M57.2094 19.1447C56.8237 19.4298 56.3457 19.6478 55.7755 19.7987C55.222 19.9329 54.635 20 54.0145 20C52.4044 20 51.1549 19.5891 50.266 18.7673C49.3939 17.9455 48.9579 16.7379 48.9579 15.1447V9.58491H46.8698V6.56604H48.9579V3.27044H52.8824V6.56604H56.2535V9.58491H52.8824V15.0943C52.8824 15.6646 53.025 16.109 53.3101 16.4277C53.612 16.7296 54.0313 16.8805 54.5679 16.8805C55.1885 16.8805 55.7168 16.7128 56.1528 16.3774L57.2094 19.1447Z" fill="#999999"/>
</svg>
