<svg width="88" height="89" viewBox="0 0 88 89" fill="none" xmlns="http://www.w3.org/2000/svg">
<circle cx="44" cy="44.5" r="44" fill="#066AFF"/>
<circle cx="44" cy="44.5" r="44" fill="white" fill-opacity="0.9"/>
<path d="M24.2676 27.5H64.2676V38.9286H24.2676V27.5Z" fill="#066AFF"/>
<path d="M24.2676 41.7861H64.2676V56.0718H24.2676V41.7861Z" fill="#066AFF"/>
<path d="M30.4579 27.5H24.2686L50.6977 53.2143H57.0371L30.4579 27.5Z" fill="#066AFF"/>
<path d="M58.1996 27.5H64.2673L38.3574 53.2143H32.1426L58.1996 27.5Z" fill="#066AFF"/>
<path d="M42.8396 35.6424C42.8396 36.4314 42.2 37.071 41.411 37.071C40.622 37.071 39.9824 36.4314 39.9824 35.6424C39.9824 34.8535 40.622 34.2139 41.411 34.2139C42.2 34.2139 42.8396 34.8535 42.8396 35.6424Z" fill="black"/>
<path d="M48.5525 35.6424C48.5525 36.4314 47.9129 37.071 47.1239 37.071C46.3349 37.071 45.6953 36.4314 45.6953 35.6424C45.6953 34.8535 46.3349 34.2139 47.1239 34.2139C47.9129 34.2139 48.5525 34.8535 48.5525 35.6424Z" fill="black"/>
<path fill-rule="evenodd" clip-rule="evenodd" d="M67.9873 48.1431C65.5925 49.4637 63.0213 49.7687 61.3555 49.6405L61.465 48.2161C62.8945 48.3261 65.1804 48.0596 67.2975 46.8921C69.3887 45.7389 71.3346 43.6987 72.1428 40.1963L73.5348 40.5175C72.6288 44.4437 70.408 46.8082 67.9873 48.1431Z" fill="black"/>
<path fill-rule="evenodd" clip-rule="evenodd" d="M20.5478 49.7387C22.9427 48.4181 25.5139 48.1132 27.1797 48.2413L27.0701 49.6657C25.6407 49.5557 23.3547 49.8223 21.2377 50.9897C19.1465 52.1429 17.2006 54.1831 16.3923 57.6855L15.0003 57.3643C15.9064 53.4382 18.1272 51.0736 20.5478 49.7387Z" fill="black"/>
<path fill-rule="evenodd" clip-rule="evenodd" d="M32.125 67.5003C32.125 59.3649 35.0286 55.1823 36.7288 54.0488L37.5212 55.2375C36.3643 56.0088 33.5536 59.6357 33.5536 67.5003H32.125Z" fill="black"/>
<path fill-rule="evenodd" clip-rule="evenodd" d="M54.9824 67.5003C54.9824 59.3649 52.0788 55.1823 50.3786 54.0488L49.5862 55.2375C50.7432 56.0088 53.5539 59.6357 53.5539 67.5003H54.9824Z" fill="black"/>
</svg>

