<svg width="41" height="28" viewBox="0 0 41 28" fill="none" xmlns="http://www.w3.org/2000/svg">
<path d="M6.4873 0H34.4873V8H6.4873V0Z" fill="#066AFF"/>
<path d="M6.4873 10H34.4873V20H6.4873V10Z" fill="#066AFF"/>
<path d="M10.8203 0H6.48779L24.9882 18H29.4258L10.8203 0Z" fill="#066AFF"/>
<path d="M30.2399 0H34.4873L16.3504 18H12L30.2399 0Z" fill="#066AFF"/>
<path d="M19.4873 5C19.4873 5.55228 19.0396 6 18.4873 6C17.935 6 17.4873 5.55228 17.4873 5C17.4873 4.44772 17.935 4 18.4873 4C19.0396 4 19.4873 4.44772 19.4873 5Z" fill="black"/>
<path d="M23.4873 5C23.4873 5.55228 23.0396 6 22.4873 6C21.935 6 21.4873 5.55228 21.4873 5C21.4873 4.44772 21.935 4 22.4873 4C23.0396 4 23.4873 4.44772 23.4873 5Z" fill="black"/>
<path fill-rule="evenodd" clip-rule="evenodd" d="M37.0915 14.4503C35.4151 15.3748 33.6153 15.5882 32.4492 15.4985L32.5259 14.5015C33.5265 14.5784 35.1267 14.3919 36.6086 13.5747C38.0725 12.7674 39.4346 11.3393 40.0004 8.88757L40.9748 9.11243C40.3405 11.8607 38.786 13.5159 37.0915 14.4503Z" fill="black"/>
<path fill-rule="evenodd" clip-rule="evenodd" d="M3.8831 15.567C5.55949 14.6425 7.35933 14.4291 8.52539 14.5188L8.44869 15.5159C7.44809 15.4389 5.84793 15.6255 4.36599 16.4427C2.90214 17.2499 1.54002 18.6781 0.974238 21.1298L-0.000153522 20.9049C0.63407 18.1566 2.18862 16.5014 3.8831 15.567Z" fill="black"/>
<path fill-rule="evenodd" clip-rule="evenodd" d="M11.9873 28C11.9873 22.3052 14.0198 19.3774 15.21 18.584L15.7647 19.416C14.9548 19.9559 12.9873 22.4948 12.9873 28H11.9873Z" fill="black"/>
<path fill-rule="evenodd" clip-rule="evenodd" d="M27.9873 28C27.9873 22.3052 25.9548 19.3774 24.7647 18.584L24.21 19.416C25.0198 19.9559 26.9873 22.4948 26.9873 28H27.9873Z" fill="black"/>
</svg>
