<svg width="45" height="43" viewBox="0 0 45 43" fill="none" xmlns="http://www.w3.org/2000/svg">
<ellipse cx="22.5" cy="21.5" rx="22.5" ry="21.5" fill="#066AFF" fill-opacity="0.51"/>
<path d="M44.5 21.5C44.5 33.0768 34.6719 42.5 22.5 42.5C10.3281 42.5 0.5 33.0768 0.5 21.5C0.5 9.9232 10.3281 0.5 22.5 0.5C34.6719 0.5 44.5 9.9232 44.5 21.5Z" stroke="#066AFF" stroke-opacity="0.51"/>
<path d="M13.8906 20V21.25H10.1875V20H13.8906ZM11.0352 26V19.5664C11.0352 19.1315 11.1198 18.7708 11.2891 18.4844C11.4609 18.1979 11.6953 17.9831 11.9922 17.8398C12.2891 17.6966 12.6263 17.625 13.0039 17.625C13.2591 17.625 13.4922 17.6445 13.7031 17.6836C13.9167 17.7227 14.0755 17.7578 14.1797 17.7891L13.8828 19.0391C13.8177 19.0182 13.737 18.9987 13.6406 18.9805C13.5469 18.9622 13.4505 18.9531 13.3516 18.9531C13.1068 18.9531 12.9362 19.0104 12.8398 19.125C12.7435 19.237 12.6953 19.3945 12.6953 19.5977V26H11.0352ZM14.9072 26V20H16.5713V26H14.9072ZM15.7432 19.2266C15.4958 19.2266 15.2835 19.1445 15.1064 18.9805C14.932 18.8138 14.8447 18.6146 14.8447 18.3828C14.8447 18.1536 14.932 17.957 15.1064 17.793C15.2835 17.6263 15.4958 17.543 15.7432 17.543C15.9906 17.543 16.2015 17.6263 16.376 17.793C16.5531 17.957 16.6416 18.1536 16.6416 18.3828C16.6416 18.6146 16.5531 18.8138 16.376 18.9805C16.2015 19.1445 15.9906 19.2266 15.7432 19.2266ZM19.2949 20L20.3965 22.0977L21.5254 20H23.2324L21.4941 23L23.2793 26H21.5801L20.3965 23.9258L19.2324 26H17.5137L19.2949 23L17.5762 20H19.2949ZM26.7402 26.1172C26.123 26.1172 25.5918 25.9922 25.1465 25.7422C24.7038 25.4896 24.3626 25.1328 24.123 24.6719C23.8835 24.2083 23.7637 23.6602 23.7637 23.0273C23.7637 22.4102 23.8835 21.8685 24.123 21.4023C24.3626 20.9362 24.6999 20.5729 25.1348 20.3125C25.5723 20.0521 26.0853 19.9219 26.6738 19.9219C27.0697 19.9219 27.4382 19.9857 27.7793 20.1133C28.123 20.2383 28.4225 20.4271 28.6777 20.6797C28.9355 20.9323 29.1361 21.25 29.2793 21.6328C29.4225 22.013 29.4941 22.4583 29.4941 22.9687V23.4258H24.4277V22.3945H27.9277C27.9277 22.1549 27.8757 21.9427 27.7715 21.7578C27.6673 21.5729 27.5228 21.4284 27.3379 21.3242C27.1556 21.2174 26.9434 21.1641 26.7012 21.1641C26.4486 21.1641 26.2246 21.2227 26.0293 21.3398C25.8366 21.4544 25.6855 21.6094 25.5762 21.8047C25.4668 21.9974 25.4108 22.2122 25.4082 22.4492V23.4297C25.4082 23.7266 25.4629 23.9831 25.5723 24.1992C25.6842 24.4154 25.8418 24.582 26.0449 24.6992C26.248 24.8164 26.4889 24.875 26.7676 24.875C26.9525 24.875 27.1217 24.849 27.2754 24.7969C27.429 24.7448 27.5605 24.6667 27.6699 24.5625C27.7793 24.4583 27.8626 24.3307 27.9199 24.1797L29.459 24.2812C29.3809 24.651 29.2207 24.974 28.9785 25.25C28.7389 25.5234 28.429 25.737 28.0488 25.8906C27.6712 26.0417 27.235 26.1172 26.7402 26.1172ZM33.7715 20V21.25H30.1582V20H33.7715ZM30.9785 18.5625H32.6426V24.1562C32.6426 24.3099 32.666 24.4297 32.7129 24.5156C32.7598 24.599 32.8249 24.6576 32.9082 24.6914C32.9941 24.7253 33.0931 24.7422 33.2051 24.7422C33.2832 24.7422 33.3613 24.7357 33.4395 24.7227C33.5176 24.707 33.5775 24.6953 33.6191 24.6875L33.8809 25.9258C33.7975 25.9518 33.6803 25.9818 33.5293 26.0156C33.3783 26.0521 33.1947 26.0742 32.9785 26.082C32.5775 26.0977 32.2259 26.0443 31.9238 25.9219C31.6243 25.7995 31.3913 25.6094 31.2246 25.3516C31.0579 25.0937 30.9759 24.7682 30.9785 24.375V18.5625Z" fill="white" fill-opacity="0.53"/>
</svg>
