<svg width="92" height="32" viewBox="0 0 92 32" fill="none" xmlns="http://www.w3.org/2000/svg">
<path d="M9.65312 10.0647H15.3218V14.994H9.81743V31.6713H3.4094V14.994H0V10.0647H3.4094V9.07888C3.4094 6.55949 4.14879 4.5604 5.62756 3.08162C7.13372 1.60285 9.24235 0.863459 11.9534 0.863459C12.9119 0.863459 13.8156 0.972999 14.6645 1.19208C15.5408 1.38377 16.2665 1.67131 16.8416 2.0547L15.1575 6.69641C14.4181 6.1761 13.5554 5.91594 12.5696 5.91594C10.6253 5.91594 9.65312 6.98395 9.65312 9.11996V10.0647Z" fill="#666666"/>
<path d="M9.65312 10.0647H15.3218V14.994H9.81743V31.6713H3.4094V14.994H0V10.0647H3.4094V9.07888C3.4094 6.55949 4.14879 4.5604 5.62756 3.08162C7.13372 1.60285 9.24235 0.863459 11.9534 0.863459C12.9119 0.863459 13.8156 0.972999 14.6645 1.19208C15.5408 1.38377 16.2665 1.67131 16.8416 2.0547L15.1575 6.69641C14.4181 6.1761 13.5554 5.91594 12.5696 5.91594C10.6253 5.91594 9.65312 6.98395 9.65312 9.11996V10.0647Z" fill="#066AFF"/>
<path d="M19.4742 10.0226H25.7534V31.678H19.4742V10.0226ZM22.6138 7.00377C21.4599 7.00377 20.5207 6.66834 19.7962 5.99749C19.0717 5.32663 18.7094 4.49476 18.7094 3.50189C18.7094 2.50901 19.0717 1.67715 19.7962 1.00629C20.5207 0.33543 21.4599 0 22.6138 0C23.7677 0 24.7069 0.322013 25.4314 0.966039C26.1559 1.61006 26.5182 2.4151 26.5182 3.38113C26.5182 4.42767 26.1559 5.29979 25.4314 5.99749C24.7069 6.66834 23.7677 7.00377 22.6138 7.00377Z" fill="#666666"/>
<path d="M19.4742 10.0226H25.7534V31.678H19.4742V10.0226ZM22.6138 7.00377C21.4599 7.00377 20.5207 6.66834 19.7962 5.99749C19.0717 5.32663 18.7094 4.49476 18.7094 3.50189C18.7094 2.50901 19.0717 1.67715 19.7962 1.00629C20.5207 0.33543 21.4599 0 22.6138 0C23.7677 0 24.7069 0.322013 25.4314 0.966039C26.1559 1.61006 26.5182 2.4151 26.5182 3.38113C26.5182 4.42767 26.1559 5.29979 25.4314 5.99749C24.7069 6.66834 23.7677 7.00377 22.6138 7.00377Z" fill="#066AFF"/>
<path d="M44.4607 31.678L39.711 25.3487L34.8003 31.678H27.9575L36.2896 20.7698L28.2393 10.0226H35.2833L39.711 15.8863L44.5814 10.0226H51.2632L43.2129 20.6088L51.5852 31.678H44.4607Z" fill="#666666"/>
<path d="M44.4607 31.678L39.711 25.3487L34.8003 31.678H27.9575L36.2896 20.7698L28.2393 10.0226H35.2833L39.711 15.8863L44.5814 10.0226H51.2632L43.2129 20.6088L51.5852 31.678H44.4607Z" fill="#066AFF"/>
<path d="M74.0902 20.9308C74.0902 21.0113 74.05 21.5748 73.9695 22.6214H57.5871C57.8822 23.9631 58.5799 25.0231 59.6801 25.8013C60.7804 26.5795 62.1489 26.9686 63.7858 26.9686C64.9129 26.9686 65.9057 26.8075 66.7644 26.4855C67.65 26.1367 68.4684 25.6 69.2198 24.8755L72.5607 28.4981C70.5212 30.8327 67.5426 32 63.6248 32C61.1829 32 59.0227 31.5304 57.1443 30.5912C55.2659 29.6252 53.8168 28.2969 52.7971 26.6063C51.7774 24.9157 51.2676 22.9971 51.2676 20.8503C51.2676 18.7304 51.764 16.8252 52.7569 15.1346C53.7766 13.4172 55.1586 12.0889 56.9028 11.1497C58.6739 10.1836 60.6462 9.70063 62.8198 9.70063C64.9397 9.70063 66.8583 10.1568 68.5757 11.0692C70.2931 11.9816 71.6349 13.2964 72.6009 15.0138C73.5938 16.7044 74.0902 18.6767 74.0902 20.9308ZM62.86 14.4503C61.4378 14.4503 60.2437 14.8528 59.2776 15.6579C58.3116 16.4629 57.7212 17.5631 57.5066 18.9585H68.1732C67.9586 17.5899 67.3682 16.5031 66.4022 15.6981C65.4361 14.8662 64.2554 14.4503 62.86 14.4503Z" fill="#666666"/>
<path d="M74.0902 20.9308C74.0902 21.0113 74.05 21.5748 73.9695 22.6214H57.5871C57.8822 23.9631 58.5799 25.0231 59.6801 25.8013C60.7804 26.5795 62.1489 26.9686 63.7858 26.9686C64.9129 26.9686 65.9057 26.8075 66.7644 26.4855C67.65 26.1367 68.4684 25.6 69.2198 24.8755L72.5607 28.4981C70.5212 30.8327 67.5426 32 63.6248 32C61.1829 32 59.0227 31.5304 57.1443 30.5912C55.2659 29.6252 53.8168 28.2969 52.7971 26.6063C51.7774 24.9157 51.2676 22.9971 51.2676 20.8503C51.2676 18.7304 51.764 16.8252 52.7569 15.1346C53.7766 13.4172 55.1586 12.0889 56.9028 11.1497C58.6739 10.1836 60.6462 9.70063 62.8198 9.70063C64.9397 9.70063 66.8583 10.1568 68.5757 11.0692C70.2931 11.9816 71.6349 13.2964 72.6009 15.0138C73.5938 16.7044 74.0902 18.6767 74.0902 20.9308ZM62.86 14.4503C61.4378 14.4503 60.2437 14.8528 59.2776 15.6579C58.3116 16.4629 57.7212 17.5631 57.5066 18.9585H68.1732C67.9586 17.5899 67.3682 16.5031 66.4022 15.6981C65.4361 14.8662 64.2554 14.4503 62.86 14.4503Z" fill="#066AFF"/>
<path d="M91.5351 30.6314C90.9179 31.0876 90.1531 31.4365 89.2408 31.678C88.3552 31.8927 87.416 32 86.4232 32C83.8471 32 81.8479 31.3426 80.4257 30.0277C79.0303 28.7128 78.3326 26.7807 78.3326 24.2314V15.3358H74.9917V10.5057H78.3326V5.23271H84.6118V10.5057H90.0055V15.3358H84.6118V24.1509C84.6118 25.0633 84.8399 25.7744 85.2961 26.2843C85.7791 26.7673 86.45 27.0088 87.3087 27.0088C88.3016 27.0088 89.1469 26.7405 89.8445 26.2038L91.5351 30.6314Z" fill="#666666"/>
<path d="M91.5351 30.6314C90.9179 31.0876 90.1531 31.4365 89.2408 31.678C88.3552 31.8927 87.416 32 86.4232 32C83.8471 32 81.8479 31.3426 80.4257 30.0277C79.0303 28.7128 78.3326 26.7807 78.3326 24.2314V15.3358H74.9917V10.5057H78.3326V5.23271H84.6118V10.5057H90.0055V15.3358H84.6118V24.1509C84.6118 25.0633 84.8399 25.7744 85.2961 26.2843C85.7791 26.7673 86.45 27.0088 87.3087 27.0088C88.3016 27.0088 89.1469 26.7405 89.8445 26.2038L91.5351 30.6314Z" fill="#066AFF"/>
</svg>
