<svg width="132" height="92" viewBox="0 0 132 92" fill="none" xmlns="http://www.w3.org/2000/svg">
<path fill-rule="evenodd" clip-rule="evenodd" d="M110.127 0H22.1934V25.1442H47.4546L53.9092 31.4292H22.1934V62.8594H110.127V31.4292H79.0369L85.3646 25.1442H110.127V0ZM71.885 25.1442H61.2043L66.5977 30.3662L71.885 25.1442Z" fill="#066AFF"/>
<path d="M63.0251 19.5776C63.0251 21.3134 61.6191 22.7206 59.8846 22.7206C58.1502 22.7206 56.7441 21.3134 56.7441 19.5776C56.7441 17.8417 58.1502 16.4346 59.8846 16.4346C61.6191 16.4346 63.0251 17.8417 63.0251 19.5776Z" fill="black"/>
<path d="M75.5876 19.5776C75.5876 21.3134 74.1816 22.7206 72.4471 22.7206C70.7127 22.7206 69.3066 21.3134 69.3066 19.5776C69.3066 17.8417 70.7127 16.4346 72.4471 16.4346C74.1816 16.4346 75.5876 17.8417 75.5876 19.5776Z" fill="black"/>
<path fill-rule="evenodd" clip-rule="evenodd" d="M14.209 39.4565C19.9114 42.5244 26.0336 43.2327 30 42.935L29.7391 39.6262C26.3355 39.8817 20.8925 39.2625 15.8516 36.5505C10.8723 33.8716 6.23895 29.1322 4.31444 20.9961L1 21.7423C3.15734 30.8627 8.44519 36.3556 14.209 39.4565Z" fill="black"/>
<path fill-rule="evenodd" clip-rule="evenodd" d="M39.4707 88.0049C39.4707 70.1062 45.8538 60.9039 49.5914 58.4102L51.3334 61.0253C48.7901 62.7223 42.6112 70.7018 42.6112 88.0049H39.4707Z" fill="black"/>
<path fill-rule="evenodd" clip-rule="evenodd" d="M89.7188 88.0049C89.7188 70.1062 83.3357 60.9039 79.5981 58.4102L77.856 61.0253C80.3994 62.7223 86.5783 70.7018 86.5783 88.0049H89.7188Z" fill="black"/>
<path fill-rule="evenodd" clip-rule="evenodd" d="M117.791 39.4565C112.089 42.5244 105.966 43.2327 102 42.935L102.261 39.6262C105.664 39.8817 111.107 39.2625 116.148 36.5505C121.128 33.8716 125.761 29.1322 127.686 20.9961L131 21.7423C128.843 30.8627 123.555 36.3556 117.791 39.4565Z" fill="black"/>
<rect y="55.9932" width="132" height="36.0019" rx="12" fill="#EEEEEE"/>
<circle cx="24" cy="73.9941" r="3" fill="#999999"/>
<circle cx="36" cy="73.9941" r="3" fill="#999999"/>
<circle cx="48" cy="73.9941" r="3" fill="#999999"/>
<circle cx="60" cy="73.9941" r="3" fill="#999999"/>
<circle cx="72" cy="73.9941" r="3" fill="#999999"/>
<circle cx="84" cy="73.9941" r="3" fill="#999999"/>
<circle cx="96" cy="73.9941" r="3" fill="#999999"/>
<circle cx="108" cy="73.9941" r="3" fill="#999999"/>
</svg>
