<svg width="381" height="100" viewBox="0 0 381 100" fill="none" xmlns="http://www.w3.org/2000/svg">
<path fill-rule="evenodd" clip-rule="evenodd" d="M241.396 12H150.169V38.0648H176.38L183.076 44.579H150.171V77.1599H241.398V44.579H209.145L215.709 38.0648H241.396V12.5721L241.4 12.5682H241.396V12ZM201.725 38.0648H190.645L196.24 43.4776L201.725 38.0648Z" fill="#066AFF"/>
<path d="M192.527 32.2933C192.527 34.0927 191.068 35.5514 189.269 35.5514C187.469 35.5514 186.011 34.0927 186.011 32.2933C186.011 30.4939 187.469 29.0352 189.269 29.0352C191.068 29.0352 192.527 30.4939 192.527 32.2933Z" fill="black"/>
<path d="M205.56 32.2933C205.56 34.0927 204.101 35.5514 202.302 35.5514C200.503 35.5514 199.044 34.0927 199.044 32.2933C199.044 30.4939 200.503 29.0352 202.302 29.0352C204.101 29.0352 205.56 30.4939 205.56 32.2933Z" fill="black"/>
<path fill-rule="evenodd" clip-rule="evenodd" d="M141.665 60.5405C147.563 57.4728 153.897 56.7646 158 57.0622L157.73 60.3708C154.209 60.1154 148.578 60.7345 143.364 63.4464C138.213 66.1251 133.42 70.8643 131.429 79L128 78.2538C130.232 69.1339 135.702 63.6413 141.665 60.5405Z" fill="black"/>
<path fill-rule="evenodd" clip-rule="evenodd" d="M170.054 100.001C170.054 81.1914 176.747 71.521 180.667 68.9004L182.494 71.6486C179.827 73.4318 173.347 81.8174 173.347 100.001H170.054Z" fill="black"/>
<path fill-rule="evenodd" clip-rule="evenodd" d="M221.888 100.001C221.888 81.1914 215.194 71.521 211.274 68.9004L209.448 71.6486C212.115 73.4318 218.594 81.8174 218.594 100.001H221.888Z" fill="black"/>
<path fill-rule="evenodd" clip-rule="evenodd" d="M249.335 53.4595C243.437 56.5272 237.103 57.2354 233 56.9378L233.27 53.6292C236.791 53.8846 242.422 53.2655 247.636 50.5536C252.787 47.8749 257.58 43.1357 259.571 35L263 35.7462C260.768 44.8661 255.298 50.3587 249.335 53.4595Z" fill="black"/>
<rect x="249" width="132" height="36" rx="12" fill="#EEEEEE"/>
<circle cx="273" cy="18" r="3" fill="#999999"/>
<circle cx="285" cy="18" r="3" fill="#999999"/>
<circle cx="297" cy="18" r="3" fill="#999999"/>
<circle cx="309" cy="18" r="3" fill="#999999"/>
<circle cx="321" cy="18" r="3" fill="#999999"/>
<circle cx="333" cy="18" r="3" fill="#999999"/>
<circle cx="345" cy="18" r="3" fill="#999999"/>
<circle cx="357" cy="18" r="3" fill="#999999"/>
<rect y="64" width="132" height="36" rx="12" fill="#EEEEEE"/>
<circle cx="24" cy="82" r="3" fill="#999999"/>
<circle cx="36" cy="82" r="3" fill="#999999"/>
<circle cx="48" cy="82" r="3" fill="#999999"/>
<circle cx="60" cy="82" r="3" fill="#999999"/>
<circle cx="72" cy="82" r="3" fill="#999999"/>
<circle cx="84" cy="82" r="3" fill="#999999"/>
<circle cx="96" cy="82" r="3" fill="#999999"/>
<circle cx="108" cy="82" r="3" fill="#999999"/>
</svg>
