<svg width="132" height="92" viewBox="0 0 132 92" fill="none" xmlns="http://www.w3.org/2000/svg">
<path fill-rule="evenodd" clip-rule="evenodd" d="M110.127 0H22.1934V25.1455H47.4556L53.9098 31.4306H22.1941V62.8625H110.128V31.4306H79.0382L85.3656 25.1455H110.127V0.549857L110.128 0.548774H110.127V0ZM71.886 25.1455H61.2053L66.5986 30.3679L71.886 25.1455Z" fill="#066AFF"/>
<path d="M63.0251 19.5784C63.0251 21.3142 61.6191 22.7213 59.8846 22.7213C58.1502 22.7213 56.7441 21.3142 56.7441 19.5784C56.7441 17.8427 58.1502 16.4355 59.8846 16.4355C61.6191 16.4355 63.0251 17.8427 63.0251 19.5784Z" fill="black"/>
<path d="M75.5876 19.5784C75.5876 21.3142 74.1816 22.7213 72.4471 22.7213C70.7127 22.7213 69.3066 21.3142 69.3066 19.5784C69.3066 17.8427 70.7127 16.4355 72.4471 16.4355C74.1816 16.4355 75.5876 17.8427 75.5876 19.5784Z" fill="black"/>
<path fill-rule="evenodd" clip-rule="evenodd" d="M14.209 46.5454C19.9114 43.4774 26.0336 42.7691 30 43.0667L29.7391 46.3757C26.3355 46.1203 20.8925 46.7394 15.8516 49.4516C10.8723 52.1306 6.23895 56.8703 4.31443 65.0068L0.999998 64.2606C3.15734 55.1397 8.44519 49.6465 14.209 46.5454Z" fill="black"/>
<path fill-rule="evenodd" clip-rule="evenodd" d="M39.4707 88.0094C39.4707 70.1097 45.8538 60.907 49.5914 58.4131L51.3334 61.0284C48.7901 62.7254 42.6112 70.7054 42.6112 88.0094H39.4707Z" fill="black"/>
<path fill-rule="evenodd" clip-rule="evenodd" d="M89.7188 88.0094C89.7188 70.1097 83.3357 60.907 79.5981 58.4131L77.856 61.0284C80.3994 62.7254 86.5783 70.7054 86.5783 88.0094H89.7188Z" fill="black"/>
<path fill-rule="evenodd" clip-rule="evenodd" d="M117.791 46.5454C112.089 43.4774 105.966 42.769 102 43.0667L102.261 46.3757C105.664 46.1203 111.107 46.7394 116.148 49.4516C121.128 52.1306 125.761 56.8703 127.686 65.0068L131 64.2606C128.843 55.1397 123.555 49.6465 117.791 46.5454Z" fill="black"/>
<rect y="55.998" width="132" height="36" rx="12" fill="#EEEEEE"/>
<circle cx="24" cy="73.998" r="3" fill="#999999"/>
<circle cx="36" cy="73.998" r="3" fill="#999999"/>
<circle cx="48" cy="73.998" r="3" fill="#999999"/>
<circle cx="60" cy="73.998" r="3" fill="#999999"/>
<circle cx="72" cy="73.998" r="3" fill="#999999"/>
<circle cx="84" cy="73.998" r="3" fill="#999999"/>
<circle cx="96" cy="73.998" r="3" fill="#999999"/>
<circle cx="108" cy="73.998" r="3" fill="#999999"/>
</svg>
