<svg width="172" height="95" viewBox="0 0 172 95" fill="none" xmlns="http://www.w3.org/2000/svg">
<path fill-rule="evenodd" clip-rule="evenodd" d="M109.531 9.99902H21.4141V35.1752H46.7295L53.1977 41.4685H21.4155V72.9387H109.532V41.4685H78.3776L84.7187 35.1752H109.531V10.5504L109.533 10.5484H109.531V9.99902ZM71.2111 35.1752H60.5079L65.9126 40.404L71.2111 35.1752Z" fill="#066AFF"/>
<path d="M62.3292 29.6002C62.3292 31.3382 60.9202 32.7472 59.1822 32.7472C57.4441 32.7472 56.0352 31.3382 56.0352 29.6002C56.0352 27.8621 57.4441 26.4531 59.1822 26.4531C60.9202 26.4531 62.3292 27.8621 62.3292 29.6002Z" fill="black"/>
<path d="M74.9171 29.6002C74.9171 31.3382 73.5081 32.7472 71.7701 32.7472C70.032 32.7472 68.623 31.3382 68.623 29.6002C68.623 27.8621 70.032 26.4531 71.7701 26.4531C73.5081 26.4531 74.9171 27.8621 74.9171 29.6002Z" fill="black"/>
<path fill-rule="evenodd" clip-rule="evenodd" d="M13.227 56.6018C18.937 53.53 25.0674 52.8208 29.0391 53.1189L28.7778 56.4319C25.3697 56.1762 19.9194 56.7961 14.8718 59.5116C9.8858 62.1939 5.2463 66.9394 3.31922 75.0859L0.000360554 74.3388C2.16058 65.2066 7.45549 59.7068 13.227 56.6018Z" fill="black"/>
<path fill-rule="evenodd" clip-rule="evenodd" d="M40.6211 94.999C40.6211 76.831 47.0867 67.4903 50.8726 64.959L52.6371 67.6135C50.0609 69.336 43.8022 77.4356 43.8022 94.999H40.6211Z" fill="black"/>
<path fill-rule="evenodd" clip-rule="evenodd" d="M90.6875 94.999C90.6875 76.831 84.2219 67.4903 80.436 64.959L78.6715 67.6135C81.2477 69.336 87.5064 77.4356 87.5064 94.999H90.6875Z" fill="black"/>
<path fill-rule="evenodd" clip-rule="evenodd" d="M116.947 53.5163C111.237 56.5881 105.106 57.2973 101.135 56.9993L101.396 53.6862C104.804 53.942 110.254 53.3221 115.302 50.6066C120.288 47.9243 124.928 43.1788 126.855 35.0322L130.173 35.7794C128.013 44.9115 122.718 50.4114 116.947 53.5163Z" fill="black"/>
<rect x="121.789" y="0.5" width="49" height="35" rx="5.5" fill="white" stroke="#CCCCCC"/>
<path d="M122.289 3L144.938 23.7612C145.702 24.4621 146.876 24.4621 147.641 23.7612L170.289 3" stroke="#CCCCCC"/>
</svg>
