<svg width="136" height="88" viewBox="0 0 136 88" fill="none" xmlns="http://www.w3.org/2000/svg">
<path fill-rule="evenodd" clip-rule="evenodd" d="M113.308 0.988281H22.1523V26.7601H48.3433L55.0334 33.201H22.1543V65.4158H113.31V33.201H81.0829L87.6415 26.7601H113.308V1.55399L113.312 1.55012H113.308V0.988281ZM73.668 26.7601H62.5969L68.1874 32.112L73.668 26.7601Z" fill="#066AFF"/>
<path d="M64.476 21.0535C64.476 22.8327 63.0184 24.275 61.2204 24.275C59.4224 24.275 57.9648 22.8327 57.9648 21.0535C57.9648 19.2743 59.4224 17.832 61.2204 17.832C63.0184 17.832 64.476 19.2743 64.476 21.0535Z" fill="black"/>
<path d="M77.4994 21.0535C77.4994 22.8327 76.0418 24.275 74.2438 24.275C72.4458 24.275 70.9883 22.8327 70.9883 21.0535C70.9883 19.2743 72.4458 17.832 74.2438 17.832C76.0418 17.832 77.4994 19.2743 77.4994 21.0535Z" fill="black"/>
<path fill-rule="evenodd" clip-rule="evenodd" d="M13.6837 48.6929C19.5905 45.5484 25.9323 44.8224 30.041 45.1275L29.7708 48.519C26.2451 48.2571 20.6068 48.8917 15.3852 51.6714C10.2272 54.4172 5.4277 59.275 3.43415 67.6143L0.000838324 66.8494C2.23556 57.5013 7.71308 51.8713 13.6837 48.6929Z" fill="black"/>
<path fill-rule="evenodd" clip-rule="evenodd" d="M42.0215 87.9997C42.0215 69.4019 48.71 59.8402 52.6265 57.249L54.4519 59.9663C51.7868 61.7295 45.3123 70.0208 45.3123 87.9997H42.0215Z" fill="black"/>
<path fill-rule="evenodd" clip-rule="evenodd" d="M93.8145 87.9997C93.8145 69.4019 87.1259 59.8402 83.2094 57.249L81.384 59.9663C84.0491 61.7295 90.5237 70.0208 90.5237 87.9997H93.8145Z" fill="black"/>
<path fill-rule="evenodd" clip-rule="evenodd" d="M115.8 46.7327C111.87 49.0765 107.651 49.6177 104.918 49.3903L105.098 46.8623C107.443 47.0575 111.194 46.5845 114.668 44.5125C118.099 42.4658 121.292 38.8449 122.618 32.6289L124.902 33.199C123.416 40.167 119.772 44.3636 115.8 46.7327Z" fill="black"/>
<mask id="mask0_2214_17298" style="mask-type:alpha" maskUnits="userSpaceOnUse" x="68" y="6" width="26" height="26">
<ellipse cx="12.505" cy="12.5347" rx="12.505" ry="12.5347" transform="matrix(0.505765 -0.86498 0.867036 0.494311 63.9863 23.6768)" fill="#BEBEBE"/>
</mask>
<g mask="url(#mask0_2214_17298)">
<path d="M70.2249 10.1978L80.9992 4.22452L91.1555 9.68115L66.5277 23.7615L66.22 19.3799L70.2249 10.1978Z" fill="white" fill-opacity="0.2"/>
<rect width="28.2536" height="8.06687" transform="matrix(0.871576 -0.498269 0.501668 0.860499 66.543 23.7783)" fill="white" fill-opacity="0.5"/>
<rect width="28.2551" height="8.87418" transform="matrix(0.871569 -0.498281 0.501655 0.860506 70.6035 30.7393)" fill="white" fill-opacity="0.2"/>
</g>
<line y1="-1.55" x2="39.2359" y2="-1.55" transform="matrix(-0.967748 -0.252014 0.257012 -0.966384 131.898 32.6289)" stroke="#333333" stroke-width="3.1"/>
<path d="M84.8807 5.49009C92.4242 7.4797 96.8747 15.1622 94.8394 22.639C92.8041 30.1157 85.0475 34.5786 77.5041 32.589C69.9606 30.5994 65.5101 22.9168 67.5454 15.4401C69.5806 7.96338 77.3372 3.50048 84.8807 5.49009Z" stroke="#333333" stroke-width="3.1"/>
</svg>
