<svg width="130" height="123" viewBox="0 0 130 123" fill="none" xmlns="http://www.w3.org/2000/svg">
<path d="M69 86C69 81.5817 72.5817 78 77 78H101C105.418 78 109 81.5817 109 86V96C109 100.418 105.418 104 101 104H77C72.5817 104 69 100.418 69 96V86Z" fill="#CCCCCC"/>
<path d="M69 86C69 81.5817 72.5817 78 77 78H101C105.418 78 109 81.5817 109 86V90C109 92.2091 107.209 94 105 94H73C70.7909 94 69 92.2091 69 90V86Z" fill="#F4F4F4"/>
<path d="M69 97.3333C69 95.4924 70.4924 94 72.3333 94H105.667C107.508 94 109 95.4924 109 97.3333C109 101.015 106.015 104 102.333 104H75.6667C71.9848 104 69 101.015 69 97.3333Z" fill="#D9D9D9"/>
<path d="M21 102C21 97.5817 24.5817 94 29 94H53C57.4183 94 61 97.5817 61 102V112C61 116.418 57.4183 120 53 120H29C24.5817 120 21 116.418 21 112V102Z" fill="#CCCCCC"/>
<path d="M21 102C21 97.5817 24.5817 94 29 94H53C57.4183 94 61 97.5817 61 102V106C61 108.209 59.2091 110 57 110H25C22.7909 110 21 108.209 21 106V102Z" fill="#F4F4F4"/>
<path d="M21 113.333C21 111.492 22.4924 110 24.3333 110H57.6667C59.5076 110 61 111.492 61 113.333C61 117.015 58.0152 120 54.3333 120H27.6667C23.9848 120 21 117.015 21 113.333Z" fill="#D9D9D9"/>
<path fill-rule="evenodd" clip-rule="evenodd" d="M109.214 0H20.541V25.1429H46.0147L52.5246 31.4286H20.543V62.8571H109.215V31.4286H77.864L84.246 25.1429H109.214V0.551731L109.216 0.548853H109.214V0ZM70.6532 25.1429H59.88L65.32 30.3659L70.6532 25.1429Z" fill="#066AFF"/>
<path d="M61.7146 19.5765C61.7146 21.3122 60.2968 22.7193 58.5477 22.7193C56.7987 22.7193 55.3809 21.3122 55.3809 19.5765C55.3809 17.8407 56.7987 16.4336 58.5477 16.4336C60.2968 16.4336 61.7146 17.8407 61.7146 19.5765Z" fill="black"/>
<path d="M74.3806 19.5765C74.3806 21.3122 72.9628 22.7193 71.2138 22.7193C69.4647 22.7193 68.0469 21.3122 68.0469 19.5765C68.0469 17.8407 69.4647 16.4336 71.2138 16.4336C72.9628 16.4336 74.3806 17.8407 74.3806 19.5765Z" fill="black"/>
<path fill-rule="evenodd" clip-rule="evenodd" d="M13.209 46.5405C18.9114 43.4728 25.0336 42.7646 29 43.0622L28.7391 46.3708C25.3355 46.1154 19.8925 46.7345 14.8516 49.4464C9.87226 52.1251 5.23895 56.8643 3.31443 65L-1.84162e-06 64.2538C2.15734 55.1339 7.44519 49.6413 13.209 46.5405Z" fill="black"/>
<path fill-rule="evenodd" clip-rule="evenodd" d="M41 75C41 62.9041 47.4569 56.6853 51.2378 55L53 56.7673C50.4272 57.9141 44.1768 63.3067 44.1768 75H41Z" fill="black"/>
<path fill-rule="evenodd" clip-rule="evenodd" d="M89 86C89 67.2514 82.5431 57.6122 78.7622 55L77 57.7393C79.5728 59.5168 85.8232 67.8753 85.8232 86H89Z" fill="black"/>
<path fill-rule="evenodd" clip-rule="evenodd" d="M116.791 46.5405C111.089 43.4728 104.966 42.7646 101 43.0622L101.261 46.3708C104.664 46.1154 110.107 46.7345 115.148 49.4464C120.128 52.1251 124.761 56.8643 126.686 65L130 64.2538C127.843 55.1339 122.555 49.6413 116.791 46.5405Z" fill="black"/>
</svg>
