<svg width="221" height="68" viewBox="0 0 221 68" fill="none" xmlns="http://www.w3.org/2000/svg">
<path d="M38.928 0.799995V1.75999H8.688V32.48H36.72V33.44H8.688V68H0.72V0.799995H38.928ZM49.0013 1.75999V0.799995H66.0893V1.75999H61.3853V67.04H66.0893V68H49.0013V67.04H53.4173V1.75999H49.0013ZM78.6038 68H77.3558L94.7318 33.632L75.7238 0.799995H83.7878L100.3 29.216L114.7 0.799995H115.852L100.972 30.368L122.86 68H114.796L95.4038 34.688L78.6038 68ZM170.647 0.799995V1.75999H140.407V30.56H168.439V31.52H140.407V67.04H172.759V68H132.439V0.799995H170.647ZM203.612 68H195.644V1.75999H179.036V0.799995H220.316V1.75999H203.612V68Z" fill="url(#paint0_linear_785_6556)"/>
<defs>
<linearGradient id="paint0_linear_785_6556" x1="-6" y1="79.1933" x2="245.96" y2="-23.6146" gradientUnits="userSpaceOnUse">
<stop stop-color="#5A3092"/>
<stop offset="0.505208" stop-color="#E4CCFF"/>
<stop offset="1" stop-color="#2457FE"/>
</linearGradient>
</defs>
</svg>
