<svg width="80" height="28" viewBox="0 0 80 28" fill="none" xmlns="http://www.w3.org/2000/svg">
<path d="M8.44648 8.80664H13.4065V13.1197H8.59025V27.7124H2.98323V13.1197H0V8.80664H2.98323V7.94402C2.98323 5.73955 3.63019 3.99035 4.92412 2.69642C6.24201 1.40249 8.08706 0.755527 10.4593 0.755527C11.2979 0.755527 12.0887 0.851374 12.8315 1.04307C13.5982 1.2108 14.2332 1.4624 14.7364 1.79786L13.2628 5.85936C12.6158 5.40409 11.861 5.17645 10.9984 5.17645C9.29712 5.17645 8.44648 6.11095 8.44648 7.97996V8.80664Z" fill="#666666"/>
<path d="M8.44648 8.80664H13.4065V13.1197H8.59025V27.7124H2.98323V13.1197H0V8.80664H2.98323V7.94402C2.98323 5.73955 3.63019 3.99035 4.92412 2.69642C6.24201 1.40249 8.08706 0.755527 10.4593 0.755527C11.2979 0.755527 12.0887 0.851374 12.8315 1.04307C13.5982 1.2108 14.2332 1.4624 14.7364 1.79786L13.2628 5.85936C12.6158 5.40409 11.861 5.17645 10.9984 5.17645C9.29712 5.17645 8.44648 6.11095 8.44648 7.97996V8.80664Z" fill="#066AFF"/>
<path d="M16.6692 8.76981H22.1635V27.7182H16.6692V8.76981ZM19.4163 6.1283C18.4067 6.1283 17.5849 5.8348 16.9509 5.2478C16.317 4.6608 16 3.93291 16 3.06415C16 2.19539 16.317 1.46751 16.9509 0.880504C17.5849 0.293501 18.4067 0 19.4163 0C20.426 0 21.2478 0.281761 21.8818 0.845284C22.5157 1.40881 22.8327 2.11321 22.8327 2.95849C22.8327 3.87421 22.5157 4.63732 21.8818 5.2478C21.2478 5.8348 20.426 6.1283 19.4163 6.1283Z" fill="#666666"/>
<path d="M16.6692 8.76981H22.1635V27.7182H16.6692V8.76981ZM19.4163 6.1283C18.4067 6.1283 17.5849 5.8348 16.9509 5.2478C16.317 4.6608 16 3.93291 16 3.06415C16 2.19539 16.317 1.46751 16.9509 0.880504C17.5849 0.293501 18.4067 0 19.4163 0C20.426 0 21.2478 0.281761 21.8818 0.845284C22.5157 1.40881 22.8327 2.11321 22.8327 2.95849C22.8327 3.87421 22.5157 4.63732 21.8818 5.2478C21.2478 5.8348 20.426 6.1283 19.4163 6.1283Z" fill="#066AFF"/>
<path d="M38.5323 27.7182L34.3764 22.1801L30.0795 27.7182H24.0921L31.3827 18.1736L24.3386 8.76981H30.5021L34.3764 13.9005L38.638 8.76981H44.4845L37.4405 18.0327L44.7663 27.7182H38.5323Z" fill="#666666"/>
<path d="M38.5323 27.7182L34.3764 22.1801L30.0795 27.7182H24.0921L31.3827 18.1736L24.3386 8.76981H30.5021L34.3764 13.9005L38.638 8.76981H44.4845L37.4405 18.0327L44.7663 27.7182H38.5323Z" fill="#066AFF"/>
<path d="M64.4582 18.3145C64.4582 18.3849 64.423 18.878 64.3525 19.7937H50.018C50.2762 20.9677 50.8867 21.8952 51.8494 22.5761C52.8121 23.257 54.0096 23.5975 55.4418 23.5975C56.428 23.5975 57.2968 23.4566 58.0481 23.1748C58.823 22.8696 59.5391 22.4 60.1966 21.766L63.1198 24.9359C61.3354 26.9786 58.7291 28 55.301 28C53.1643 28 51.2741 27.5891 49.6305 26.7673C47.9869 25.922 46.719 24.7598 45.8268 23.2805C44.9345 21.8013 44.4884 20.1224 44.4884 18.244C44.4884 16.3891 44.9228 14.722 45.7915 13.2428C46.6838 11.74 47.893 10.5778 49.4192 9.75597C50.9689 8.91069 52.6947 8.48805 54.5966 8.48805C56.4515 8.48805 58.1303 8.88721 59.633 9.68554C61.1358 10.4839 62.3098 11.6344 63.1551 13.1371C64.0238 14.6164 64.4582 16.3421 64.4582 18.3145ZM54.6318 12.644C53.3873 12.644 52.3425 12.9962 51.4972 13.7006C50.6519 14.405 50.1353 15.3677 49.9475 16.5887H59.2808C59.093 15.3912 58.5764 14.4403 57.7312 13.7358C56.8859 13.008 55.8528 12.644 54.6318 12.644Z" fill="#666666"/>
<path d="M64.4582 18.3145C64.4582 18.3849 64.423 18.878 64.3525 19.7937H50.018C50.2762 20.9677 50.8867 21.8952 51.8494 22.5761C52.8121 23.257 54.0096 23.5975 55.4418 23.5975C56.428 23.5975 57.2968 23.4566 58.0481 23.1748C58.823 22.8696 59.5391 22.4 60.1966 21.766L63.1198 24.9359C61.3354 26.9786 58.7291 28 55.301 28C53.1643 28 51.2741 27.5891 49.6305 26.7673C47.9869 25.922 46.719 24.7598 45.8268 23.2805C44.9345 21.8013 44.4884 20.1224 44.4884 18.244C44.4884 16.3891 44.9228 14.722 45.7915 13.2428C46.6838 11.74 47.893 10.5778 49.4192 9.75597C50.9689 8.91069 52.6947 8.48805 54.5966 8.48805C56.4515 8.48805 58.1303 8.88721 59.633 9.68554C61.1358 10.4839 62.3098 11.6344 63.1551 13.1371C64.0238 14.6164 64.4582 16.3421 64.4582 18.3145ZM54.6318 12.644C53.3873 12.644 52.3425 12.9962 51.4972 13.7006C50.6519 14.405 50.1353 15.3677 49.9475 16.5887H59.2808C59.093 15.3912 58.5764 14.4403 57.7312 13.7358C56.8859 13.008 55.8528 12.644 54.6318 12.644Z" fill="#066AFF"/>
<path d="M79.7225 26.8025C79.1825 27.2017 78.5133 27.5069 77.7149 27.7182C76.9401 27.9061 76.1183 28 75.2495 28C72.9955 28 71.2462 27.4247 70.0017 26.2742C68.7808 25.1237 68.1703 23.4331 68.1703 21.2025V13.4189H65.247V9.19245H68.1703V4.57862H73.6646V9.19245H78.3841V13.4189H73.6646V21.1321C73.6646 21.9304 73.8642 22.5526 74.2634 22.9987C74.686 23.4214 75.273 23.6327 76.0244 23.6327C76.8931 23.6327 77.6328 23.3979 78.2432 22.9283L79.7225 26.8025Z" fill="#666666"/>
<path d="M79.7225 26.8025C79.1825 27.2017 78.5133 27.5069 77.7149 27.7182C76.9401 27.9061 76.1183 28 75.2495 28C72.9955 28 71.2462 27.4247 70.0017 26.2742C68.7808 25.1237 68.1703 23.4331 68.1703 21.2025V13.4189H65.247V9.19245H68.1703V4.57862H73.6646V9.19245H78.3841V13.4189H73.6646V21.1321C73.6646 21.9304 73.8642 22.5526 74.2634 22.9987C74.686 23.4214 75.273 23.6327 76.0244 23.6327C76.8931 23.6327 77.6328 23.3979 78.2432 22.9283L79.7225 26.8025Z" fill="#066AFF"/>
</svg>
